# xmcd CD database file
#
# Track frame offsets:
#	150
#	10705
#	29502
#	43672
#	55067
#	63545
#	81382
#	93062
#	111490
#	123145
#	135740
#	149360
#	164172
#	177470
#
# Disc length: 2532 seconds
#
# Revision: 1
# Processed by: cddbd v1.4b41PL3 Copyright (c) Steve Scherf et al.
# Submitted via: CDex 1.40Beta4
#
DISCID=c609e20e
DTITLE=Zé Tapera and Teodoro - Luar Do Sertão
DYEAR=1900
DGENRE=Country
TTITLE0=Tchau, Amor
TTITLE1=Japonês No Saravá
TTITLE2=Filho Da Roça
TTITLE3=Dona Da Minha Vida (O Dono Da Minha Vida)
TTITLE4=Eu Quero Amor
TTITLE5=Lição De Moral
TTITLE6=Fuscão Preto
TTITLE7=Dinheiro Emprestado
TTITLE8=Eu Choro Por Causa Dela
TTITLE9=Eterno Apaixonado
TTITLE10=Casa Fechada
TTITLE11=Bolo De Saravá
TTITLE12=O Homem Do Sol
TTITLE13=Tchau, Pra Que
EXTD=ID3G:   2
EXTT0=
EXTT1=
EXTT2=
EXTT3=
EXTT4=
EXTT5=
EXTT6=
EXTT7=
EXTT8=
EXTT9=
EXTT10=
EXTT11=
EXTT12=
EXTT13=
PLAYORDER=
